<svg width="30" height="30" viewBox="0 0 30 30" fill="none" xmlns="http://www.w3.org/2000/svg">
<path d="M28.6713 14.0091C28.6739 14.0091 28.6758 14.0091 28.6784 14.0091C28.8569 14.0091 29.0272 13.9342 29.1481 13.803C29.271 13.6699 29.3318 13.4913 29.3158 13.3109C28.6732 6.24334 23.0777 0.645902 16.0096 0.00206247C15.8304 -0.0120175 15.6499 0.0462225 15.5168 0.169743C15.3836 0.292623 15.3094 0.466063 15.3113 0.647183C15.4227 10.0398 16.6617 13.8779 28.6713 14.0091ZM28.6713 15.307C16.6617 15.4382 15.4233 19.2763 15.312 28.6689C15.31 28.8501 15.3843 29.0235 15.5174 29.1464C15.6364 29.2558 15.792 29.3166 15.952 29.3166C15.9712 29.3166 15.991 29.316 16.0102 29.3141C23.0784 28.6702 28.6739 23.0734 29.3158 16.0053C29.3318 15.8248 29.2716 15.6462 29.1481 15.5131C29.0246 15.38 28.8524 15.3141 28.6713 15.307ZM13.2659 0.00526254C6.22012 0.667663 0.642517 6.26382 0.00315684 13.3121C-0.0128432 13.4926 0.0473169 13.6712 0.170837 13.8043C0.291797 13.9355 0.462677 14.0097 0.640597 14.0097C0.643157 14.0097 0.645717 14.0097 0.648277 14.0097C12.6182 13.8721 13.854 10.036 13.9667 0.649742C13.9686 0.468623 13.8937 0.294543 13.7606 0.171663C13.6262 0.0487825 13.4464 -0.0113775 13.2659 0.00526254ZM0.647637 15.3064C0.448597 15.284 0.292437 15.3787 0.170197 15.5118C0.047317 15.6449 -0.0134831 15.8235 0.00251689 16.004C0.641877 23.0523 6.22012 28.6485 13.2659 29.3109C13.2857 29.3128 13.3062 29.3134 13.326 29.3134C13.486 29.3134 13.6409 29.2533 13.76 29.1438C13.8931 29.0209 13.968 28.8469 13.966 28.6657C13.8534 19.2801 12.6182 15.444 0.647637 15.3064Z" fill="#FEFEFE"/>
</svg>
